HIERARCHY
ROOT Hips
{
 OFFSET 0.000000 0.000000 0.000000
 CHANNELS 6 Xposition Yposition Zposition Yrotation Xrotation Zrotation
 JOINT Chest
 {
  OFFSET 0.000000 10.858100 0.003500
  CHANNELS 3 Yrotation Xrotation Zrotation
  JOINT Chest2
  {
   OFFSET 0.000000 12.033100 -0.006300
   CHANNELS 3 Yrotation Xrotation Zrotation
   JOINT Chest3
   {
    OFFSET 0.000000 10.873000 0.000000
    CHANNELS 3 Yrotation Xrotation Zrotation
    JOINT Chest4
    {
     OFFSET 0.000000 10.873100 0.000000
     CHANNELS 3 Yrotation Xrotation Zrotation
     JOINT Neck
     {
      OFFSET 0.000000 15.287100 0.000000
      CHANNELS 3 Yrotation Xrotation Zrotation
      JOINT Head
      {
       OFFSET 0.000000 10.117800 -0.015000
       CHANNELS 3 Yrotation Xrotation Zrotation
       End Site
       {
        OFFSET 0.000000 19.391900 -0.007800
       }
      }
     }
     JOINT RightCollar
     {
      OFFSET -3.308500 8.525800 0.000000
      CHANNELS 3 Yrotation Xrotation Zrotation
      JOINT RightShoulder
      {
       OFFSET -15.326500 0.000000 0.000000
       CHANNELS 3 Yrotation Xrotation Zrotation
       JOINT RightElbow
       {
        OFFSET -32.728200 0.000000 0.000000
        CHANNELS 3 Yrotation Xrotation Zrotation
        JOINT RightWrist
        {
         OFFSET -26.775900 0.000000 0.000000
         CHANNELS 3 Yrotation Xrotation Zrotation
         End Site
         {
          OFFSET -20.037400 0.000000 0.000000
         }
        }
       }
      }
     }
     JOINT LeftCollar
     {
      OFFSET 3.308500 8.525800 0.000000
      CHANNELS 3 Yrotation Xrotation Zrotation
      JOINT LeftShoulder
      {
       OFFSET 15.326500 0.000000 0.000000
       CHANNELS 3 Yrotation Xrotation Zrotation
       JOINT LeftElbow
       {
        OFFSET 32.728200 0.000000 0.000000
        CHANNELS 3 Yrotation Xrotation Zrotation
        JOINT LeftWrist
        {
         OFFSET 26.775900 0.000000 0.000000
         CHANNELS 3 Yrotation Xrotation Zrotation
         End Site
         {
          OFFSET 20.037400 0.000000 0.000000
         }
        }
       }
      }
     }
    }
   }
  }
 }
 JOINT RightHip
 {
  OFFSET -8.790400 -0.016900 -0.001700
  CHANNELS 3 Yrotation Xrotation Zrotation
  JOINT RightKnee
  {
   OFFSET 0.000000 -45.668200 0.001600
   CHANNELS 3 Yrotation Xrotation Zrotation
   JOINT RightAnkle
   {
    OFFSET 0.000000 -44.710400 0.002800
    CHANNELS 3 Yrotation Xrotation Zrotation
    JOINT RightToe
    {
     OFFSET 0.000000 -7.040800 15.874000
     CHANNELS 3 Yrotation Xrotation Zrotation
     End Site
     {
      OFFSET 0.000000 -1.632900 6.946300
     }
    }
   }
  }
 }
 JOINT LeftHip
 {
  OFFSET 8.790400 -0.016900 -0.001700
  CHANNELS 3 Yrotation Xrotation Zrotation
  JOINT LeftKnee
  {
   OFFSET 0.000000 -45.668200 0.001600
   CHANNELS 3 Yrotation Xrotation Zrotation
   JOINT LeftAnkle
   {
    OFFSET 0.000000 -44.710400 0.002800
    CHANNELS 3 Yrotation Xrotation Zrotation
    JOINT LeftToe
    {
     OFFSET 0.000000 -7.040800 15.874000
     CHANNELS 3 Yrotation Xrotation Zrotation
     End Site
     {
      OFFSET 0.000000 -1.632900 6.946300
     }
    }
   }
  }
 }
}
MOTION
Frames: 7
Frame Time: 0.004167
0.000000 97.236400 0.000000 0.000000 -5.826399 0.000000 0.000000 11.116459 0.000000 0.000000 -5.290052 0.000000 0.000000 0.000000 0.000000 0.000000 0.000000 0.000000 0.000000 12.665098 0.000000 0.000000 0.575365 0.000000 0.000000 0.000000 0.000000 0.000000 0.000000 0.000000 2.337257 0.000000 0.000000 -2.337257 0.000000 0.000000 0.000000 0.000000 0.000000 0.000000 0.000000 0.000000 -2.337257 0.000000 0.000000 2.337257 0.000000 0.000000 0.000000 8.578932 0.000000 0.000000 1.905762 0.000000 0.000000 -4.658285 0.000000 0.000000 0.000000 0.000000 0.000000 8.578932 0.000000 0.000000 1.905762 0.000000 0.000000 -4.658285 0.000000 0.000000 0.000000 0.000000
-24.074400 87.020300 192.775500 -10.797070 13.825236 -18.063580 2.805221 11.213682 5.219751 1.113800 5.014875 2.240247 1.113813 5.014913 2.240221 0.816407 3.765381 1.669871 2.242793 12.064097 -3.135173 5.619734 -13.562518 -6.945678 8.474145 2.095164 4.197824 3.417119 -16.263752 60.129014 33.512032 -5.489433 8.130964 3.975229 -6.723017 -14.709909 -8.037298 3.606432 -6.520432 -4.328953 -32.082875 -38.973719 -37.150900 9.757973 -22.853506 -4.098432 -13.502100 38.639741 2.836111 -29.897373 -5.279417 2.992578 32.511160 9.410739 4.647290 -2.450398 -6.312734 -2.686307 -15.905979 19.054161 5.042963 -44.532373 5.241792 12.241830 55.646959 -6.568704 -10.037453 -12.050853 9.270054 -2.351821 -13.769785 19.295326
-23.673600 86.687100 192.675500 -10.753960 13.895832 -18.313724 2.759180 11.217103 5.282386 1.092002 5.016196 2.269069 1.091873 5.016291 2.269081 0.799681 3.766235 1.691673 2.302609 12.020866 -3.107399 5.725952 -13.639900 -6.921685 8.519974 2.071146 4.160308 3.462051 -16.312346 60.018934 33.640812 -5.358111 8.178988 4.079243 -6.566232 -15.029368 -8.036857 3.595614 -6.479937 -4.182444 -32.063408 -39.091277 -37.047408 9.761195 -22.735992 -4.020501 -13.502762 38.848313 2.880191 -30.009443 -5.312928 3.264866 32.684060 9.484137 4.587326 -2.614766 -6.335418 -2.743456 -15.987402 19.353629 5.425774 -45.036549 4.865013 12.083523 56.166960 -6.394818 -9.833099 -12.187650 9.249524 -2.406874 -13.893525 19.565089
-23.272300 86.344300 192.572300 -10.729091 13.981309 -18.572939 2.719121 11.213352 5.347135 1.072643 5.014490 2.298690 1.072707 5.014539 2.298684 0.785149 3.764972 1.714093 2.362459 11.981015 -3.078132 5.831287 -13.711100 -6.894298 8.568413 2.056683 4.123220 3.508001 -16.373473 59.904513 33.776837 -5.224808 8.219044 4.178024 -6.416312 -15.331321 -8.030010 3.583687 -6.435753 -4.045503 -32.038880 -39.218889 -36.910714 9.765894 -22.596125 -3.949800 -13.505595 39.024507 2.889097 -30.138875 -5.335646 3.538145 32.886307 9.580874 4.566850 -2.721119 -6.426645 -2.822006 -16.151265 19.697226 5.779291 -45.578718 4.541373 12.137102 56.751079 -6.111466 -9.785536 -12.391124 9.285742 -2.450823 -13.961547 19.819243
-22.858700 85.992700 192.462200 -10.721953 14.046013 -18.843957 2.690830 11.219256 5.416823 1.058367 5.017228 2.330109 1.058347 5.017256 2.330206 0.774094 3.767093 1.737737 2.421551 11.944269 -3.047468 5.934211 -13.776551 -6.863867 8.627905 2.042668 4.089636 3.543630 -16.441312 59.783480 33.926725 -5.085747 8.241138 4.256646 -6.272796 -15.589104 -8.025385 3.569417 -6.388322 -3.911882 -32.020607 -39.355727 -36.736090 9.770784 -22.444759 -3.889458 -13.506896 39.169315 2.893346 -30.243359 -5.353991 3.754411 33.027817 9.609152 4.598054 -2.762208 -6.482783 -2.905664 -16.324889 20.055059 6.161822 -46.100987 4.175280 12.442683 57.276918 -5.620511 -9.829867 -12.537995 9.384634 -2.490110 -14.034446 20.027425
-22.429100 85.634400 192.348400 -10.735413 14.109443 -19.119679 2.671617 11.228011 5.487087 1.048024 5.021274 2.361611 1.048030 5.021188 2.361539 0.766069 3.770152 1.761504 2.480459 11.908684 -3.015407 6.035999 -13.840467 -6.830757 8.692650 2.018703 4.053811 3.566257 -16.513037 59.665672 34.090119 -4.941862 8.251698 4.302081 -6.122594 -15.791754 -8.026219 3.548129 -6.345011 -3.776808 -32.013285 -39.492744 -36.528293 9.779106 -22.289067 -3.836412 -13.505883 39.279935 2.913377 -30.330053 -5.395088 3.977157 33.095237 9.641470 4.631581 -2.793691 -6.518655 -2.983739 -16.463798 20.410184 6.546371 -46.596025 3.747066 13.012235 57.702050 -4.844820 -9.894045 -12.509372 9.463011 -2.548515 -14.232945 20.203877
-21.986400 85.272900 192.224000 -10.757112 14.171008 -19.397622 2.657921 11.240199 5.558088 1.040114 5.026821 2.393246 1.040110 5.026942 2.393224 0.759869 3.774376 1.785292 2.538165 11.872578 -2.981619 6.135301 -13.905021 -6.793821 8.761741 1.986587 4.022107 3.564929 -16.595033 59.551809 34.264937 -4.789861 8.259188 4.312130 -5.957976 -15.940329 -8.033649 3.520004 -6.304459 -3.639493 -32.021043 -39.626557 -36.291039 9.791593 -22.135188 -3.785034 -13.500474 39.350258 2.937867 -30.395049 -5.455048 4.223441 33.102472 9.729225 4.662536 -2.855857 -6.572789 -3.049323 -16.542759 20.750546 6.842932 -47.055847 3.358258 14.006797 57.963126 -3.708027 -10.111029 -12.356601 9.460362 -2.608490 -14.425540 20.397010
